# xmcd
#
# Track frame offsets: 
#        150
#        22000
#        45750
#        66175
#        90350
#        111150
#        133787
#        158900
#        179575
#        202500
#
# Disc length: 2970 seconds
#
# Revision: 4
# Processed by: cddbd v1.5.1PL2 Copyright (c) Steve Scherf et al.
# Submitted via: ExactAudioCopy v0.90b4
#
DISCID=790b980a
DTITLE=张信哲 - 宽容
DYEAR=1995
DGENRE=Pop
TTITLE0=不要对他说
TTITLE1=宽容
TTITLE2=只有你
TTITLE3=不回首
TTITLE4=爱会看见
TTITLE5=过火
TTITLE6=忘情忘爱
TTITLE7=假装有你
TTITLE8=日出之前请将悲伤终结
TTITLE9=真爱一生
EXTD=YEAR: 1995
EXTT0=
EXTT1=
EXTT2=
EXTT3=
EXTT4=
EXTT5=
EXTT6=
EXTT7=
EXTT8=
EXTT9=
PLAYORDER=
